<?xml version="1.0" encoding="UTF-8"?>
<svg width="22px" height="16px" viewBox="0 0 22 16" version="1.1" xmlns="http://www.w3.org/2000/svg" xmlns:xlink="http://www.w3.org/1999/xlink">
    <!-- Generator: Sketch 64 (93537) - https://sketch.com -->
    <title>delivery</title>
    <desc>Created with Sketch.</desc>
    <g id="Page-1" stroke="none" stroke-width="1" fill="none" fill-rule="evenodd">
        <g id="delivery" fill="#231E3F" fill-rule="nonzero">
            <path d="M0,0 L0,13 L2,13 C2,14.657 3.343,16 5,16 C6.657,16 8,14.657 8,13 L14,13 C14,14.657 15.343,16 17,16 C18.657,16 20,14.657 20,13 L22,13 L22,8 L19.552734,3.1054688 C19.213734,2.4274688 18.521672,2 17.763672,2 L15,2 L15,0 L0,0 Z M2,2 L13,2 L13,11 L7.2207031,11 C6.6716274,10.390667 5.8849156,10 5,10 C4.1150844,10 3.3283726,10.390667 2.7792969,11 L2,11 L2,2 Z M9.542969,3.5410156 L7,6.085938 L5.5078125,4.59375 L4.09375,6.007812 L7,8.914062 L10.958984,4.9570312 L9.542969,3.5410156 Z M15,4 L17.763672,4 L20,8.472656 L20,11 L19.220703,11 C18.671627,10.390667 17.884916,10 17,10 C16.227916,10 15.53164,10.300231 15,10.779297 L15,4 Z M5,11.75 C5.689,11.75 6.25,12.311 6.25,13 C6.25,13.689 5.689,14.25 5,14.25 C4.311,14.25 3.75,13.689 3.75,13 C3.75,12.311 4.311,11.75 5,11.75 Z M17,11.75 C17.689,11.75 18.25,12.311 18.25,13 C18.25,13.689 17.689,14.25 17,14.25 C16.311,14.25 15.75,13.689 15.75,13 C15.75,12.311 16.311,11.75 17,11.75 Z" id="Shape"></path>
        </g>
    </g>
</svg>