<?xml version="1.0" encoding="UTF-8"?>
<svg width="43px" height="42px" viewBox="0 0 43 42" version="1.1" xmlns="http://www.w3.org/2000/svg" xmlns:xlink="http://www.w3.org/1999/xlink">
    <!-- Generator: Sketch 64 (93537) - https://sketch.com -->
    <title>Artboard</title>
    <desc>Created with Sketch.</desc>
    <g id="Artboard" stroke="none" stroke-width="1" fill="none" fill-rule="evenodd">
        <g id="Group" transform="translate(-7.000000, -14.000000)" stroke="#241D3F" stroke-width="2">
            <path d="M35.7720498,15.7581086 C34.621398,14.9949798 33.2703592,14.7704901 32.0162011,15.0244455 C30.7620431,15.278401 29.6047658,16.0108016 28.8416369,17.1614535 L12.7256388,41.4612855 C12.2199579,42.2237552 11.9331781,43.1103581 11.8965305,44.0245408 C11.841225,45.4041446 12.3503503,46.6755584 13.2182028,47.6158976 C14.0860554,48.5562368 15.3126352,49.1655013 16.692239,49.2208068 L47.5529479,50.4579481 C48.79636,50.5077939 50.0245075,50.1697935 51.0673213,49.490752 C52.455762,48.586651 53.3462999,47.2053645 53.6637023,45.702993 C53.9811047,44.2006215 53.7253717,42.5771651 52.8212708,41.1887244 L37.1985062,17.1966216 C36.8261605,16.624805 36.3407124,16.1352538 35.7720498,15.7581086 Z" id="Triangle" transform="translate(33.527246, 30.500000) rotate(20.000000) translate(-33.527246, -30.500000) "></path>
            <circle id="Oval" cx="36.0830019" cy="44.8383085" r="2"></circle>
        </g>
    </g>
</svg>